<mxfile host="app.diagrams.net" agent="Mozilla/5.0 (X11; Ubuntu; Linux x86_64; rv:133.0) Gecko/20100101 Firefox/133.0" version="25.0.3">
  <diagram name="Page-1" id="yaNFf_4xNoyRj0kIE-Ph">
    <mxGraphModel dx="987" dy="685" grid="1" gridSize="10" guides="1" tooltips="1" connect="1" arrows="1" fold="1" page="1" pageScale="1" pageWidth="827" pageHeight="1169" math="0" shadow="0">
      <root>
        <mxCell id="0" />
        <mxCell id="1" parent="0" />
        <mxCell id="vz57ms9xXXCdLqg221Yy-11" value="&lt;div&gt;&lt;br&gt;&lt;/div&gt;&lt;div&gt;&lt;br&gt;&lt;/div&gt;&lt;div&gt;&amp;lt;elastic-beanstalk&amp;gt;&lt;br&gt;&lt;/div&gt;&amp;nbsp;" style="rounded=0;whiteSpace=wrap;html=1;verticalAlign=bottom;" vertex="1" parent="1">
          <mxGeometry x="120" y="300" width="190" height="260" as="geometry" />
        </mxCell>
        <mxCell id="vz57ms9xXXCdLqg221Yy-1" value="users&lt;br&gt;&amp;lt;aws dynamo&amp;gt;" style="rounded=0;whiteSpace=wrap;html=1;" vertex="1" parent="1">
          <mxGeometry x="404" y="200" width="176" height="60" as="geometry" />
        </mxCell>
        <mxCell id="vz57ms9xXXCdLqg221Yy-2" value="&lt;h1 style=&quot;margin-top: 0px;&quot;&gt;&lt;font style=&quot;font-size: 19px;&quot;&gt;User&lt;/font&gt;&lt;/h1&gt;&lt;p&gt;Will contain all system&#39;s users. Customers and Employees.&lt;br&gt;Employees will have permissions to access the Loan Application Management, like approving loans, schedule interviews, etc...&lt;br&gt;&lt;/p&gt;" style="text;html=1;whiteSpace=wrap;overflow=hidden;rounded=0;" vertex="1" parent="1">
          <mxGeometry x="600" y="160" width="180" height="160" as="geometry" />
        </mxCell>
        <mxCell id="vz57ms9xXXCdLqg221Yy-3" value="loan_applications&lt;br&gt;&amp;lt;rds postgres&amp;gt;" style="rounded=0;whiteSpace=wrap;html=1;" vertex="1" parent="1">
          <mxGeometry x="404" y="350" width="176" height="60" as="geometry" />
        </mxCell>
        <mxCell id="vz57ms9xXXCdLqg221Yy-4" value="&lt;h1 style=&quot;margin-top: 0px;&quot;&gt;&lt;font style=&quot;font-size: 19px;&quot;&gt;Loan applications&lt;br&gt;&lt;/font&gt;&lt;/h1&gt;&lt;p&gt;Will contain all loan_applications made by customers. Will be managed by the Employees.&lt;br&gt;A single record per loan_application.&lt;br&gt;&lt;/p&gt;" style="text;html=1;whiteSpace=wrap;overflow=hidden;rounded=0;" vertex="1" parent="1">
          <mxGeometry x="600" y="340" width="180" height="160" as="geometry" />
        </mxCell>
        <mxCell id="vz57ms9xXXCdLqg221Yy-5" value="employee-auth&lt;br&gt;&amp;lt;django&amp;gt;&lt;br&gt;&amp;lt;aws dynamo&amp;gt;" style="rounded=0;whiteSpace=wrap;html=1;" vertex="1" parent="1">
          <mxGeometry x="180" y="160" width="176" height="60" as="geometry" />
        </mxCell>
        <mxCell id="vz57ms9xXXCdLqg221Yy-6" value="customer-auth&lt;br&gt;&amp;lt;django&amp;gt;&lt;br&gt;&amp;lt;rekognition&amp;gt;" style="rounded=0;whiteSpace=wrap;html=1;" vertex="1" parent="1">
          <mxGeometry x="180" y="60" width="176" height="60" as="geometry" />
        </mxCell>
        <mxCell id="vz57ms9xXXCdLqg221Yy-7" value="bank_api&lt;br&gt;&amp;lt;django&amp;gt;" style="rounded=0;whiteSpace=wrap;html=1;" vertex="1" parent="1">
          <mxGeometry x="130" y="310" width="176" height="60" as="geometry" />
        </mxCell>
        <mxCell id="vz57ms9xXXCdLqg221Yy-8" value="bank_backend&lt;br&gt;&amp;lt;django&amp;gt;" style="rounded=0;whiteSpace=wrap;html=1;" vertex="1" parent="1">
          <mxGeometry x="130" y="380" width="176" height="60" as="geometry" />
        </mxCell>
        <mxCell id="vz57ms9xXXCdLqg221Yy-9" value="bank_frontend&lt;br&gt;&amp;lt;django-static&amp;gt;" style="rounded=0;whiteSpace=wrap;html=1;" vertex="1" parent="1">
          <mxGeometry x="130" y="450" width="176" height="60" as="geometry" />
        </mxCell>
        <mxCell id="vz57ms9xXXCdLqg221Yy-12" value="&lt;div&gt;loan_simulation&lt;/div&gt;&lt;div&gt;&amp;lt;django_session&amp;gt;&lt;br&gt;&lt;/div&gt;" style="rounded=0;whiteSpace=wrap;html=1;" vertex="1" parent="1">
          <mxGeometry x="404" y="510" width="176" height="60" as="geometry" />
        </mxCell>
        <mxCell id="vz57ms9xXXCdLqg221Yy-13" value="&lt;h1 style=&quot;margin-top: 0px;&quot;&gt;&lt;font style=&quot;font-size: 19px;&quot;&gt;Loan simulation&lt;br&gt;&lt;/font&gt;&lt;/h1&gt;&lt;p&gt;The class containing the initial simulation. Will be stored in the http session until being submitted to the api as a Loan Application.&lt;br&gt;&lt;/p&gt;" style="text;html=1;whiteSpace=wrap;overflow=hidden;rounded=0;" vertex="1" parent="1">
          <mxGeometry x="600" y="500" width="180" height="160" as="geometry" />
        </mxCell>
        <mxCell id="vz57ms9xXXCdLqg221Yy-14" value="Tasks" style="swimlane;fontStyle=0;childLayout=stackLayout;horizontal=1;startSize=30;horizontalStack=0;resizeParent=1;resizeParentMax=0;resizeLast=0;collapsible=1;marginBottom=0;whiteSpace=wrap;html=1;" vertex="1" parent="1">
          <mxGeometry x="53" y="780" width="330" height="240" as="geometry" />
        </mxCell>
        <mxCell id="vz57ms9xXXCdLqg221Yy-15" value="authenticate customers in dynamo and rekognition" style="text;strokeColor=none;fillColor=none;align=left;verticalAlign=middle;spacingLeft=4;spacingRight=4;overflow=hidden;points=[[0,0.5],[1,0.5]];portConstraint=eastwest;rotatable=0;whiteSpace=wrap;html=1;" vertex="1" parent="vz57ms9xXXCdLqg221Yy-14">
          <mxGeometry y="30" width="330" height="30" as="geometry" />
        </mxCell>
        <mxCell id="vz57ms9xXXCdLqg221Yy-16" value="loan_simulation models" style="text;strokeColor=none;fillColor=none;align=left;verticalAlign=middle;spacingLeft=4;spacingRight=4;overflow=hidden;points=[[0,0.5],[1,0.5]];portConstraint=eastwest;rotatable=0;whiteSpace=wrap;html=1;" vertex="1" parent="vz57ms9xXXCdLqg221Yy-14">
          <mxGeometry y="60" width="330" height="30" as="geometry" />
        </mxCell>
        <mxCell id="vz57ms9xXXCdLqg221Yy-18" value="loan_simulation simulation" style="text;strokeColor=none;fillColor=none;align=left;verticalAlign=middle;spacingLeft=4;spacingRight=4;overflow=hidden;points=[[0,0.5],[1,0.5]];portConstraint=eastwest;rotatable=0;whiteSpace=wrap;html=1;" vertex="1" parent="vz57ms9xXXCdLqg221Yy-14">
          <mxGeometry y="90" width="330" height="30" as="geometry" />
        </mxCell>
        <mxCell id="vz57ms9xXXCdLqg221Yy-19" value="loan_simulation submit to loan application" style="text;strokeColor=none;fillColor=none;align=left;verticalAlign=middle;spacingLeft=4;spacingRight=4;overflow=hidden;points=[[0,0.5],[1,0.5]];portConstraint=eastwest;rotatable=0;whiteSpace=wrap;html=1;" vertex="1" parent="vz57ms9xXXCdLqg221Yy-14">
          <mxGeometry y="120" width="330" height="30" as="geometry" />
        </mxCell>
        <mxCell id="vz57ms9xXXCdLqg221Yy-20" value="django_dummy app setup" style="text;strokeColor=none;fillColor=none;align=left;verticalAlign=middle;spacingLeft=4;spacingRight=4;overflow=hidden;points=[[0,0.5],[1,0.5]];portConstraint=eastwest;rotatable=0;whiteSpace=wrap;html=1;" vertex="1" parent="vz57ms9xXXCdLqg221Yy-14">
          <mxGeometry y="150" width="330" height="30" as="geometry" />
        </mxCell>
        <mxCell id="vz57ms9xXXCdLqg221Yy-22" value="automate deployment to aws (using boto3 when possible)" style="text;strokeColor=none;fillColor=none;align=left;verticalAlign=middle;spacingLeft=4;spacingRight=4;overflow=hidden;points=[[0,0.5],[1,0.5]];portConstraint=eastwest;rotatable=0;whiteSpace=wrap;html=1;" vertex="1" parent="vz57ms9xXXCdLqg221Yy-14">
          <mxGeometry y="180" width="330" height="30" as="geometry" />
        </mxCell>
        <mxCell id="vz57ms9xXXCdLqg221Yy-23" value="development environment setup (.devcontainers)" style="text;strokeColor=none;fillColor=none;align=left;verticalAlign=middle;spacingLeft=4;spacingRight=4;overflow=hidden;points=[[0,0.5],[1,0.5]];portConstraint=eastwest;rotatable=0;whiteSpace=wrap;html=1;" vertex="1" parent="vz57ms9xXXCdLqg221Yy-14">
          <mxGeometry y="210" width="330" height="30" as="geometry" />
        </mxCell>
      </root>
    </mxGraphModel>
  </diagram>
</mxfile>
